<mxfile host="app.diagrams.net" modified="2024-01-27T13:24:20.733Z" agent="Mozilla/5.0 (Macintosh; Intel Mac OS X 10_15_7) AppleWebKit/537.36 (KHTML, like Gecko) Chrome/120.0.0.0 Safari/537.36" etag="NTuPsY7h9OrzqwvhC5FA" version="23.0.2" type="device">
  <diagram id="R2lEEEUBdFMjLlhIrx00" name="Page-1">
    <mxGraphModel dx="1242" dy="733" grid="1" gridSize="10" guides="1" tooltips="1" connect="1" arrows="1" fold="1" page="1" pageScale="1" pageWidth="850" pageHeight="1100" math="0" shadow="0" extFonts="Permanent Marker^https://fonts.googleapis.com/css?family=Permanent+Marker">
      <root>
        <mxCell id="0" />
        <mxCell id="1" parent="0" />
        <mxCell id="CKnWTNf-XU3LMJgh_Tq6-2" value="DB" style="shape=cylinder3;whiteSpace=wrap;html=1;boundedLbl=1;backgroundOutline=1;size=15;" parent="1" vertex="1">
          <mxGeometry x="373" y="440" width="105" height="160" as="geometry" />
        </mxCell>
        <mxCell id="CKnWTNf-XU3LMJgh_Tq6-16" value="Listen to FetchEvent" style="edgeStyle=orthogonalEdgeStyle;rounded=0;orthogonalLoop=1;jettySize=auto;html=1;exitX=0.25;exitY=0;exitDx=0;exitDy=0;entryX=1;entryY=1;entryDx=0;entryDy=0;" parent="1" source="CKnWTNf-XU3LMJgh_Tq6-3" target="CKnWTNf-XU3LMJgh_Tq6-4" edge="1">
          <mxGeometry relative="1" as="geometry">
            <Array as="points">
              <mxPoint x="250" y="250" />
              <mxPoint x="180" y="250" />
            </Array>
            <mxPoint as="offset" />
          </mxGeometry>
        </mxCell>
        <mxCell id="CKnWTNf-XU3LMJgh_Tq6-18" value="Listen to DoneFetchingEvent" style="edgeStyle=orthogonalEdgeStyle;rounded=0;orthogonalLoop=1;jettySize=auto;html=1;" parent="1" source="CKnWTNf-XU3LMJgh_Tq6-3" target="CKnWTNf-XU3LMJgh_Tq6-5" edge="1">
          <mxGeometry relative="1" as="geometry">
            <Array as="points">
              <mxPoint x="500" y="160" />
            </Array>
          </mxGeometry>
        </mxCell>
        <mxCell id="CKnWTNf-XU3LMJgh_Tq6-3" value="Pub Sub" style="rounded=0;whiteSpace=wrap;html=1;" parent="1" vertex="1">
          <mxGeometry x="80" y="330" width="680" height="40" as="geometry" />
        </mxCell>
        <mxCell id="CKnWTNf-XU3LMJgh_Tq6-7" value="1. Request" style="edgeStyle=orthogonalEdgeStyle;rounded=0;orthogonalLoop=1;jettySize=auto;html=1;" parent="1" source="CKnWTNf-XU3LMJgh_Tq6-4" target="CKnWTNf-XU3LMJgh_Tq6-6" edge="1">
          <mxGeometry relative="1" as="geometry">
            <Array as="points">
              <mxPoint x="140" y="95" />
              <mxPoint x="280" y="95" />
            </Array>
          </mxGeometry>
        </mxCell>
        <mxCell id="CKnWTNf-XU3LMJgh_Tq6-10" value="4. DoneFetchingEvent" style="edgeStyle=orthogonalEdgeStyle;rounded=0;orthogonalLoop=1;jettySize=auto;html=1;" parent="1" source="CKnWTNf-XU3LMJgh_Tq6-4" target="CKnWTNf-XU3LMJgh_Tq6-3" edge="1">
          <mxGeometry relative="1" as="geometry">
            <Array as="points">
              <mxPoint x="140" y="275" />
              <mxPoint x="170" y="275" />
            </Array>
          </mxGeometry>
        </mxCell>
        <mxCell id="CKnWTNf-XU3LMJgh_Tq6-11" value="3. Save Page" style="edgeStyle=orthogonalEdgeStyle;rounded=0;orthogonalLoop=1;jettySize=auto;html=1;exitX=0;exitY=0.75;exitDx=0;exitDy=0;" parent="1" source="CKnWTNf-XU3LMJgh_Tq6-4" target="CKnWTNf-XU3LMJgh_Tq6-2" edge="1">
          <mxGeometry relative="1" as="geometry">
            <Array as="points">
              <mxPoint x="50" y="200" />
              <mxPoint x="50" y="420" />
              <mxPoint x="400" y="420" />
            </Array>
          </mxGeometry>
        </mxCell>
        <mxCell id="CKnWTNf-XU3LMJgh_Tq6-4" value="Crawler" style="whiteSpace=wrap;html=1;aspect=fixed;" parent="1" vertex="1">
          <mxGeometry x="100" y="140" width="80" height="80" as="geometry" />
        </mxCell>
        <mxCell id="CKnWTNf-XU3LMJgh_Tq6-14" value="8. DoneScrapingEvent" style="edgeStyle=orthogonalEdgeStyle;rounded=0;orthogonalLoop=1;jettySize=auto;html=1;exitX=1;exitY=0.75;exitDx=0;exitDy=0;entryX=0.75;entryY=0;entryDx=0;entryDy=0;" parent="1" source="CKnWTNf-XU3LMJgh_Tq6-5" target="CKnWTNf-XU3LMJgh_Tq6-3" edge="1">
          <mxGeometry x="0.1399" y="-16" relative="1" as="geometry">
            <Array as="points">
              <mxPoint x="720" y="200" />
              <mxPoint x="720" y="300" />
              <mxPoint x="590" y="300" />
            </Array>
            <mxPoint as="offset" />
          </mxGeometry>
        </mxCell>
        <mxCell id="CKnWTNf-XU3LMJgh_Tq6-5" value="Scraper" style="whiteSpace=wrap;html=1;aspect=fixed;" parent="1" vertex="1">
          <mxGeometry x="600" y="140" width="80" height="80" as="geometry" />
        </mxCell>
        <mxCell id="CKnWTNf-XU3LMJgh_Tq6-8" value="2. Web Page" style="edgeStyle=orthogonalEdgeStyle;rounded=0;orthogonalLoop=1;jettySize=auto;html=1;exitX=0.25;exitY=1;exitDx=0;exitDy=0;entryX=0.25;entryY=0;entryDx=0;entryDy=0;" parent="1" source="CKnWTNf-XU3LMJgh_Tq6-6" target="CKnWTNf-XU3LMJgh_Tq6-4" edge="1">
          <mxGeometry x="0.0027" relative="1" as="geometry">
            <Array as="points">
              <mxPoint x="256" y="80" />
              <mxPoint x="120" y="80" />
            </Array>
            <mxPoint as="offset" />
          </mxGeometry>
        </mxCell>
        <mxCell id="CKnWTNf-XU3LMJgh_Tq6-6" value="Internet" style="rounded=0;whiteSpace=wrap;html=1;" parent="1" vertex="1">
          <mxGeometry x="80" y="10" width="680" height="40" as="geometry" />
        </mxCell>
        <mxCell id="CKnWTNf-XU3LMJgh_Tq6-12" value="5. Get Page" style="edgeStyle=orthogonalEdgeStyle;rounded=0;orthogonalLoop=1;jettySize=auto;html=1;entryX=0.442;entryY=1.037;entryDx=0;entryDy=0;entryPerimeter=0;" parent="1" source="CKnWTNf-XU3LMJgh_Tq6-2" target="CKnWTNf-XU3LMJgh_Tq6-5" edge="1">
          <mxGeometry relative="1" as="geometry" />
        </mxCell>
        <mxCell id="CKnWTNf-XU3LMJgh_Tq6-15" value="7. FetchEvent" style="edgeStyle=orthogonalEdgeStyle;rounded=0;orthogonalLoop=1;jettySize=auto;html=1;exitX=1;exitY=1;exitDx=0;exitDy=0;entryX=0.455;entryY=-0.042;entryDx=0;entryDy=0;entryPerimeter=0;" parent="1" source="CKnWTNf-XU3LMJgh_Tq6-5" target="CKnWTNf-XU3LMJgh_Tq6-3" edge="1">
          <mxGeometry relative="1" as="geometry" />
        </mxCell>
        <mxCell id="CKnWTNf-XU3LMJgh_Tq6-23" value="Tables" style="swimlane;whiteSpace=wrap;html=1;" parent="1" vertex="1">
          <mxGeometry x="235.5" y="480" width="124.5" height="100" as="geometry" />
        </mxCell>
        <mxCell id="CKnWTNf-XU3LMJgh_Tq6-24" value="1. Companies&lt;br&gt;2. Locations&lt;br&gt;3. Persons" style="text;html=1;align=left;verticalAlign=middle;resizable=0;points=[];autosize=1;strokeColor=none;fillColor=none;" parent="CKnWTNf-XU3LMJgh_Tq6-23" vertex="1">
          <mxGeometry x="4.5" y="30" width="100" height="60" as="geometry" />
        </mxCell>
        <mxCell id="CKnWTNf-XU3LMJgh_Tq6-27" value="API" style="rounded=0;whiteSpace=wrap;html=1;" parent="1" vertex="1">
          <mxGeometry x="360" y="620" width="120" height="50" as="geometry" />
        </mxCell>
        <mxCell id="CKnWTNf-XU3LMJgh_Tq6-28" style="edgeStyle=orthogonalEdgeStyle;rounded=0;orthogonalLoop=1;jettySize=auto;html=1;entryX=0.5;entryY=1;entryDx=0;entryDy=0;entryPerimeter=0;" parent="1" source="CKnWTNf-XU3LMJgh_Tq6-27" target="CKnWTNf-XU3LMJgh_Tq6-2" edge="1">
          <mxGeometry relative="1" as="geometry" />
        </mxCell>
        <mxCell id="CKnWTNf-XU3LMJgh_Tq6-30" value="" style="edgeStyle=orthogonalEdgeStyle;rounded=0;orthogonalLoop=1;jettySize=auto;html=1;" parent="1" source="CKnWTNf-XU3LMJgh_Tq6-29" target="CKnWTNf-XU3LMJgh_Tq6-27" edge="1">
          <mxGeometry relative="1" as="geometry">
            <Array as="points">
              <mxPoint x="357" y="750" />
              <mxPoint x="420" y="750" />
            </Array>
          </mxGeometry>
        </mxCell>
        <mxCell id="CKnWTNf-XU3LMJgh_Tq6-29" value="Placer Sales" style="shape=umlActor;verticalLabelPosition=bottom;verticalAlign=top;html=1;outlineConnect=0;" parent="1" vertex="1">
          <mxGeometry x="320" y="780" width="27" height="50" as="geometry" />
        </mxCell>
        <mxCell id="CKnWTNf-XU3LMJgh_Tq6-34" value="" style="edgeStyle=orthogonalEdgeStyle;rounded=0;orthogonalLoop=1;jettySize=auto;html=1;" parent="1" source="CKnWTNf-XU3LMJgh_Tq6-31" target="CKnWTNf-XU3LMJgh_Tq6-27" edge="1">
          <mxGeometry relative="1" as="geometry" />
        </mxCell>
        <mxCell id="CKnWTNf-XU3LMJgh_Tq6-31" value="Placer Sales" style="shape=umlActor;verticalLabelPosition=bottom;verticalAlign=top;html=1;outlineConnect=0;" parent="1" vertex="1">
          <mxGeometry x="406.5" y="780" width="27" height="50" as="geometry" />
        </mxCell>
        <mxCell id="CKnWTNf-XU3LMJgh_Tq6-35" value="" style="edgeStyle=orthogonalEdgeStyle;rounded=0;orthogonalLoop=1;jettySize=auto;html=1;" parent="1" source="CKnWTNf-XU3LMJgh_Tq6-32" target="CKnWTNf-XU3LMJgh_Tq6-27" edge="1">
          <mxGeometry relative="1" as="geometry">
            <Array as="points">
              <mxPoint x="487" y="750" />
              <mxPoint x="420" y="750" />
            </Array>
          </mxGeometry>
        </mxCell>
        <mxCell id="CKnWTNf-XU3LMJgh_Tq6-32" value="Placer Sales" style="shape=umlActor;verticalLabelPosition=bottom;verticalAlign=top;html=1;outlineConnect=0;" parent="1" vertex="1">
          <mxGeometry x="500" y="780" width="27" height="50" as="geometry" />
        </mxCell>
        <mxCell id="CKnWTNf-XU3LMJgh_Tq6-36" value="API" style="rounded=0;whiteSpace=wrap;html=1;" parent="1" vertex="1">
          <mxGeometry x="370" y="630" width="120" height="50" as="geometry" />
        </mxCell>
        <mxCell id="CKnWTNf-XU3LMJgh_Tq6-37" value="API" style="rounded=0;whiteSpace=wrap;html=1;" parent="1" vertex="1">
          <mxGeometry x="380" y="640" width="120" height="50" as="geometry" />
        </mxCell>
        <mxCell id="CKnWTNf-XU3LMJgh_Tq6-38" value="LB" style="rounded=1;whiteSpace=wrap;html=1;" parent="1" vertex="1">
          <mxGeometry x="360" y="710" width="130" height="20" as="geometry" />
        </mxCell>
        <mxCell id="CKnWTNf-XU3LMJgh_Tq6-39" value="Scraper" style="whiteSpace=wrap;html=1;aspect=fixed;" parent="1" vertex="1">
          <mxGeometry x="610" y="150" width="80" height="80" as="geometry" />
        </mxCell>
        <mxCell id="CKnWTNf-XU3LMJgh_Tq6-40" value="Scraper" style="whiteSpace=wrap;html=1;aspect=fixed;" parent="1" vertex="1">
          <mxGeometry x="620" y="160" width="80" height="80" as="geometry" />
        </mxCell>
        <mxCell id="CKnWTNf-XU3LMJgh_Tq6-41" value="Crawler" style="whiteSpace=wrap;html=1;aspect=fixed;" parent="1" vertex="1">
          <mxGeometry x="110" y="150" width="80" height="80" as="geometry" />
        </mxCell>
        <mxCell id="CKnWTNf-XU3LMJgh_Tq6-42" value="Crawler" style="whiteSpace=wrap;html=1;aspect=fixed;" parent="1" vertex="1">
          <mxGeometry x="120" y="160" width="80" height="80" as="geometry" />
        </mxCell>
        <mxCell id="CKnWTNf-XU3LMJgh_Tq6-43" value="6. Scraped Info" style="edgeStyle=orthogonalEdgeStyle;rounded=0;orthogonalLoop=1;jettySize=auto;html=1;exitX=0;exitY=1;exitDx=0;exitDy=0;entryX=0.855;entryY=0;entryDx=0;entryDy=4.35;entryPerimeter=0;" parent="1" source="CKnWTNf-XU3LMJgh_Tq6-5" target="CKnWTNf-XU3LMJgh_Tq6-2" edge="1">
          <mxGeometry relative="1" as="geometry">
            <Array as="points">
              <mxPoint x="600" y="400" />
              <mxPoint x="463" y="400" />
            </Array>
          </mxGeometry>
        </mxCell>
      </root>
    </mxGraphModel>
  </diagram>
</mxfile>
